<svg xmlns="http://www.w3.org/2000/svg" width="106.008" height="136.632" viewBox="0 0 106.008 136.632">
  <g id="diploma" transform="translate(-6.5)">
    <path id="Path_4" data-name="Path 4" d="M112.508,32.98,79.528,0H6.5V136.632H112.508Z" transform="translate(0)" fill="#edeada"/>
    <path id="Path_5" data-name="Path 5" d="M37.5,0V32.98H70.48Z" transform="translate(42.028)" fill="#cec9ae"/>
    <g id="Group_3" data-name="Group 3" transform="translate(25.346 32.98)">
      <path id="Path_6" data-name="Path 6" d="M16.856,18.711h21.2a2.356,2.356,0,1,0,0-4.711h-21.2a2.356,2.356,0,1,0,0,4.711Z" transform="translate(-14.5 -14)" fill="#cec9ae"/>
      <path id="Path_7" data-name="Path 7" d="M16.856,26.711H28.634a2.356,2.356,0,1,0,0-4.711H16.856a2.356,2.356,0,1,0,0,4.711Z" transform="translate(-14.5 -3.154)" fill="#cec9ae"/>
      <path id="Path_8" data-name="Path 8" d="M48.346,22H31.856a2.356,2.356,0,0,0,0,4.711h16.49a2.356,2.356,0,0,0,0-4.711Z" transform="translate(5.836 -3.154)" fill="#cec9ae"/>
      <path id="Path_9" data-name="Path 9" d="M25.183,22.688a2.274,2.274,0,0,0-.683,1.649,2.372,2.372,0,0,0,.683,1.673,2.473,2.473,0,0,0,1.673.683,2.308,2.308,0,0,0,1.673-.707,2.381,2.381,0,0,0,.683-1.649,2.468,2.468,0,0,0-.683-1.673A2.442,2.442,0,0,0,25.183,22.688Z" transform="translate(-0.943 -3.136)" fill="#cec9ae"/>
      <path id="Path_10" data-name="Path 10" d="M45.528,22.666a2.365,2.365,0,0,0-3.345,3.345,2.365,2.365,0,0,0,3.345-3.345Z" transform="translate(22.105 -3.137)" fill="#cec9ae"/>
      <path id="Path_11" data-name="Path 11" d="M38.346,30H21.856a2.356,2.356,0,1,0,0,4.711h16.49a2.356,2.356,0,0,0,0-4.711Z" transform="translate(-7.721 7.692)" fill="#cec9ae"/>
      <path id="Path_12" data-name="Path 12" d="M15.183,30.666a2.324,2.324,0,0,0-.683,1.673,2.365,2.365,0,0,0,4.028,1.673,2.389,2.389,0,0,0,0-3.345A2.467,2.467,0,0,0,15.183,30.666Z" transform="translate(-14.5 7.709)" fill="#cec9ae"/>
    </g>
    <g id="Group_4" data-name="Group 4" transform="translate(20.537 91.976)">
      <path id="Path_13" data-name="Path 13" d="M27.032,39.332c-5.161,2.688-6.9,7.823-7.529,13.15q-1.463-1.226-2.923-2.45c-2.311-1.936-5.663,1.378-3.331,3.333q3.3,2.767,6.61,5.538a2.381,2.381,0,0,0,4.021-1.666c.172-5.1.417-11.173,5.531-13.835C32.106,42,29.722,37.933,27.032,39.332Z" transform="translate(-12.459 -39.043)" fill="#7383bf"/>
      <path id="Path_14" data-name="Path 14" d="M39.458,46.283a5.548,5.548,0,0,0-6.332-2.58c-3.216.909-7.022,4.81-9.272.25-1.345-2.726-5.406-.337-4.068,2.377a8,8,0,0,0,10.264,4.019c.956-.358,4.53-3.138,5.34-1.689C36.872,51.313,40.942,48.936,39.458,46.283Z" transform="translate(-2.887 -34.018)" fill="#7383bf"/>
    </g>
    <path id="Path_15" data-name="Path 15" d="M52.986,30.567h0a3.862,3.862,0,0,0,5.3,2.193h0a3.863,3.863,0,0,1,5.147,5.147h0a3.864,3.864,0,0,0,2.193,5.3h0a3.863,3.863,0,0,1,0,7.279h0a3.862,3.862,0,0,0-2.193,5.3h0a3.863,3.863,0,0,1-5.147,5.147h0a3.864,3.864,0,0,0-5.3,2.193h0a3.863,3.863,0,0,1-7.279,0h0a3.862,3.862,0,0,0-5.3-2.193h0a3.863,3.863,0,0,1-5.147-5.147h0a3.864,3.864,0,0,0-2.193-5.3h0a3.863,3.863,0,0,1,0-7.279h0a3.862,3.862,0,0,0,2.193-5.3h0a3.863,3.863,0,0,1,5.147-5.147h0a3.864,3.864,0,0,0,5.3-2.193h0A3.864,3.864,0,0,1,52.986,30.567Z" transform="translate(32.537 37.961)" fill="#ebba16"/>
    <path id="Path_16" data-name="Path 16" d="M52.861,42.2a3.864,3.864,0,0,0-5.3,2.193,3.863,3.863,0,0,1-7.279,0,3.86,3.86,0,0,0-5.3-2.193,3.786,3.786,0,0,1-.485.144V68.158l9.423-9.423,9.423,9.423V42.337A3.77,3.77,0,0,1,52.861,42.2Z" transform="translate(37.96 56.695)" fill="#d75a4a"/>
  </g>
</svg>
