<svg xmlns="http://www.w3.org/2000/svg" width="264.286" height="340.636" viewBox="0 0 264.286 340.636">
  <g id="diploma" transform="translate(-6.5)">
    <path id="Path_4" data-name="Path 4" d="M270.786,82.222,188.564,0H6.5V340.636H270.786Z" transform="translate(0)" fill="#edeada"/>
    <path id="Path_5" data-name="Path 5" d="M37.5,0V82.222h82.222Z" transform="translate(151.064)" fill="#cec9ae"/>
    <g id="Group_3" data-name="Group 3" transform="translate(53.484 82.222)">
      <path id="Path_6" data-name="Path 6" d="M20.373,25.746H73.23A5.873,5.873,0,1,0,73.23,14H20.373a5.873,5.873,0,1,0,0,11.746Z" transform="translate(-14.5 -14)" fill="#cec9ae"/>
      <path id="Path_7" data-name="Path 7" d="M20.373,33.746H49.738a5.873,5.873,0,1,0,0-11.746H20.373a5.873,5.873,0,1,0,0,11.746Z" transform="translate(-14.5 24.984)" fill="#cec9ae"/>
      <path id="Path_8" data-name="Path 8" d="M76.484,22H35.373a5.873,5.873,0,0,0,0,11.746H76.484a5.873,5.873,0,0,0,0-11.746Z" transform="translate(58.595 24.984)" fill="#cec9ae"/>
      <path id="Path_9" data-name="Path 9" d="M26.2,23.695a5.669,5.669,0,0,0-1.7,4.111,5.913,5.913,0,0,0,1.7,4.17,6.164,6.164,0,0,0,4.17,1.7,5.755,5.755,0,0,0,4.17-1.762,5.935,5.935,0,0,0,1.7-4.111,6.153,6.153,0,0,0-1.7-4.17A6.089,6.089,0,0,0,26.2,23.695Z" transform="translate(34.23 25.051)" fill="#cec9ae"/>
      <path id="Path_10" data-name="Path 10" d="M51.543,23.642a6.149,6.149,0,0,0-8.34,0,5.956,5.956,0,0,0,0,8.34,5.873,5.873,0,0,0,10.043-4.17A6.153,6.153,0,0,0,51.543,23.642Z" transform="translate(117.072 25.045)" fill="#cec9ae"/>
      <path id="Path_11" data-name="Path 11" d="M66.484,30H25.373a5.873,5.873,0,0,0,0,11.746H66.484a5.873,5.873,0,0,0,0-11.746Z" transform="translate(9.865 63.969)" fill="#cec9ae"/>
      <path id="Path_12" data-name="Path 12" d="M16.2,31.642a5.793,5.793,0,0,0-1.7,4.17,5.816,5.816,0,0,0,5.873,5.873,6.176,6.176,0,0,0,4.17-1.7,5.956,5.956,0,0,0,0-8.34A6.149,6.149,0,0,0,16.2,31.642Z" transform="translate(-14.5 64.029)" fill="#cec9ae"/>
    </g>
    <g id="Group_4" data-name="Group 4" transform="translate(41.496 229.303)">
      <path id="Path_13" data-name="Path 13" d="M48.791,39.763c-12.868,6.7-17.2,19.5-18.77,32.783q-3.647-3.057-7.288-6.108c-5.761-4.828-14.119,3.436-8.3,8.31q8.237,6.9,16.48,13.808C34.8,91.816,40.751,89.8,40.933,84.4c.429-12.727,1.04-27.856,13.79-34.492C61.442,46.412,55.5,36.275,48.791,39.763Z" transform="translate(-12.459 -39.043)" fill="#7383bf"/>
      <path id="Path_14" data-name="Path 14" d="M69.23,51.558a13.833,13.833,0,0,0-15.787-6.431c-8.017,2.267-17.508,11.993-23.116.623-3.353-6.8-13.479-.84-10.143,5.926A19.952,19.952,0,0,0,45.773,61.695c2.384-.893,11.294-7.823,13.314-4.211C62.781,64.1,72.93,58.171,69.23,51.558Z" transform="translate(21.945 -20.98)" fill="#7383bf"/>
    </g>
    <path id="Path_15" data-name="Path 15" d="M86.561,34.4h0a9.628,9.628,0,0,0,13.208,5.468h0A9.632,9.632,0,0,1,112.6,52.7h0a9.634,9.634,0,0,0,5.468,13.208h0a9.63,9.63,0,0,1,0,18.148h0A9.628,9.628,0,0,0,112.6,97.265h0A9.632,9.632,0,0,1,99.769,110.1h0a9.634,9.634,0,0,0-13.208,5.468h0a9.63,9.63,0,0,1-18.148,0h0A9.628,9.628,0,0,0,55.2,110.1h0A9.632,9.632,0,0,1,42.372,97.265h0A9.634,9.634,0,0,0,36.9,84.057h0a9.63,9.63,0,0,1,0-18.148h0A9.628,9.628,0,0,0,42.372,52.7h0A9.632,9.632,0,0,1,55.2,39.868h0A9.634,9.634,0,0,0,68.413,34.4h0A9.632,9.632,0,0,1,86.561,34.4Z" transform="translate(116.95 136.446)" fill="#ebba16"/>
    <path id="Path_16" data-name="Path 16" d="M80.274,42.758a9.632,9.632,0,0,0-13.208,5.468,9.63,9.63,0,0,1-18.148,0A9.624,9.624,0,0,0,35.71,42.758a9.44,9.44,0,0,1-1.21.358v64.368L57.992,83.993l23.492,23.492V43.111A9.4,9.4,0,0,1,80.274,42.758Z" transform="translate(136.445 203.786)" fill="#d75a4a"/>
  </g>
</svg>
