<svg xmlns="http://www.w3.org/2000/svg" width="356.255" height="132.069" viewBox="0 0 356.255 132.069">
  <path id="Path_1" data-name="Path 1" d="M1.462-1.409l13.812-.013,9.687,68.779L37.393-1.423H50.632L63.064,67.034,72.751-1.423H86.959L71.459,91.9H56.929L44.174,26.024,31.58,91.9h-15.5Zm124.569,94.6q-10.817,0-16.791-4.117a21.8,21.8,0,0,1-8.4-12.19q-2.422-8.073-2.422-20.989V34.581q0-19.374,6.055-28.335t21.554-8.961q11.3,0,17.033,4.682t7.588,13.158q1.857,8.476,1.857,22.846V45.56H115.7V64.289q0,8.557,2.5,12.351t7.992,3.794q5.489,0,7.427-3.794T135.556,65.1V59.445h16.791V63q0,14.692-6.3,22.442T126.031,93.189ZM135.556,36.2V27.8q0-9.526-1.857-13.643t-7.83-4.117q-4.2,0-6.377,1.937T116.5,18.355a76.8,76.8,0,0,0-.807,12.836V36.2ZM169.623-38.88h30.03q17.76,0,26.317,7.992T234.528-6.1q0,25.025-18.729,27.609,11.625,2.745,16.953,10.9t5.328,22.2q0,17.6-8.315,27.447T204.5,91.9H169.623Zm29.062,54.571q11.3,0,15.661-4.924T218.705-6.1q0-8.718-2.664-12.836a12.029,12.029,0,0,0-7.992-5.247,82.18,82.18,0,0,0-15.822-1.13h-4.359V15.691Zm1.453,63.128q8.073,0,12.513-2.5a13.468,13.468,0,0,0,6.216-7.669q1.776-5.167,1.776-14.046,0-12.593-5.167-18.809t-16.791-6.216H187.867V78.82ZM278.6,93.189q-10.817,0-16.791-4.117a21.8,21.8,0,0,1-8.4-12.19Q251,68.81,251,55.893V34.581q0-19.374,6.054-28.335T278.6-2.714q11.3,0,17.033,4.682t7.588,13.158q1.857,8.476,1.857,22.846V45.56H268.271V64.289q0,8.557,2.5,12.351t7.992,3.794q5.489,0,7.427-3.794T288.13,65.1V59.445h16.791V63q0,14.692-6.3,22.442T278.6,93.189ZM288.13,36.2V27.8q0-9.526-1.857-13.643t-7.831-4.117q-4.2,0-6.377,1.937t-2.987,6.377a76.8,76.8,0,0,0-.807,12.836V36.2Zm57.477,56.993q-20.182,0-20.182-22.281V10.04h-9.849V-1.423h9.849V-28.708l8.658,6.031,8.618-6.031V-1.423h15.015V10.04H342.7V69.778q0,5.651,1.776,7.911t6.781,2.26a40.318,40.318,0,0,0,6.3-.484V92.22A80.928,80.928,0,0,1,345.608,93.189Z" transform="translate(-1.462 38.88)" fill="#252729"/>
</svg>
