<svg xmlns="http://www.w3.org/2000/svg" width="89.748" height="89.748" viewBox="0 0 89.748 89.748">
  <g id="Group_1" data-name="Group 1" transform="translate(-311 -277)">
    <g id="Ellipse_3" data-name="Ellipse 3" transform="translate(311 277)" fill="#edae49" stroke="#252729" stroke-width="3">
      <circle cx="44.874" cy="44.874" r="44.874" stroke="none"/>
      <circle cx="44.874" cy="44.874" r="43.374" fill="none"/>
    </g>
    <g id="Ellipse_4" data-name="Ellipse 4" transform="translate(311 277)" fill="#edae49" stroke="#252729" stroke-width="3">
      <circle cx="44.874" cy="44.874" r="44.874" stroke="none"/>
      <circle cx="44.874" cy="44.874" r="43.374" fill="none"/>
    </g>
    <path id="Path_1" data-name="Path 1" d="M1.462-30.945l2.925,0L6.438-16.383,9.071-30.948h2.8l2.633,14.5,2.051-14.5h3.009L16.285-11.186H13.207l-2.7-13.949L7.84-11.186H4.558ZM27.841-10.913a6.211,6.211,0,0,1-3.556-.872,4.617,4.617,0,0,1-1.778-2.581,15.859,15.859,0,0,1-.513-4.445v-4.513q0-4.1,1.282-6t4.564-1.9a5.6,5.6,0,0,1,3.607.992,4.782,4.782,0,0,1,1.607,2.786,23.586,23.586,0,0,1,.393,4.838V-21h-7.8v3.966a4.907,4.907,0,0,0,.53,2.616,1.879,1.879,0,0,0,1.692.8,1.6,1.6,0,0,0,1.573-.8,5.594,5.594,0,0,0,.41-2.445v-1.2h3.556v.752a7.379,7.379,0,0,1-1.333,4.752A5.146,5.146,0,0,1,27.841-10.913Zm2.017-12.069V-24.76a7.617,7.617,0,0,0-.393-2.889,1.626,1.626,0,0,0-1.658-.872,1.973,1.973,0,0,0-1.35.41,2.309,2.309,0,0,0-.633,1.35,16.264,16.264,0,0,0-.171,2.718v1.06Zm7.214-15.9h6.359q3.761,0,5.573,1.692t1.812,5.248q0,5.3-3.966,5.846a5.6,5.6,0,0,1,3.59,2.308,8.513,8.513,0,0,1,1.128,4.7,8.743,8.743,0,0,1-1.761,5.812,6.611,6.611,0,0,1-5.351,2.086H37.072Zm6.154,11.556a4.294,4.294,0,0,0,3.316-1.043,5.4,5.4,0,0,0,.923-3.573,5.116,5.116,0,0,0-.564-2.718,2.547,2.547,0,0,0-1.692-1.111,17.4,17.4,0,0,0-3.351-.239h-.923v8.684Zm.308,13.368a5.452,5.452,0,0,0,2.65-.53A2.852,2.852,0,0,0,47.5-16.11a9.446,9.446,0,0,0,.376-2.974,6.13,6.13,0,0,0-1.094-3.983,4.374,4.374,0,0,0-3.556-1.316H40.935v10.428ZM60.15-10.913a6.211,6.211,0,0,1-3.556-.872,4.617,4.617,0,0,1-1.778-2.581,15.859,15.859,0,0,1-.513-4.445v-4.513q0-4.1,1.282-6t4.564-1.9a5.6,5.6,0,0,1,3.607.992,4.782,4.782,0,0,1,1.607,2.786,23.586,23.586,0,0,1,.393,4.838V-21h-7.8v3.966a4.907,4.907,0,0,0,.53,2.616,1.879,1.879,0,0,0,1.692.8,1.6,1.6,0,0,0,1.573-.8,5.594,5.594,0,0,0,.41-2.445v-1.2h3.556v.752a7.379,7.379,0,0,1-1.333,4.752A5.146,5.146,0,0,1,60.15-10.913Zm2.017-12.069V-24.76a7.617,7.617,0,0,0-.393-2.889,1.626,1.626,0,0,0-1.658-.872,1.973,1.973,0,0,0-1.35.41,2.309,2.309,0,0,0-.633,1.35,16.264,16.264,0,0,0-.171,2.718v1.06ZM74.339-10.913q-4.274,0-4.274-4.718V-28.521H67.979v-2.427h2.086v-5.778L71.9-35.449l1.825-1.277v5.778H76.9v2.427h-3.18v12.65A2.791,2.791,0,0,0,74.1-14.2a1.751,1.751,0,0,0,1.436.479,8.538,8.538,0,0,0,1.333-.1v2.7A17.137,17.137,0,0,1,74.339-10.913Z" transform="translate(316.99 346.594)" fill="#252729"/>
  </g>
</svg>
